<?xml version="1.0" standalone="no"?>
<!DOCTYPE svg PUBLIC "-//W3C//DTD SVG 20010904//EN"
 "http://www.w3.org/TR/2001/REC-SVG-20010904/DTD/svg10.dtd">
<svg version="1.0" xmlns="http://www.w3.org/2000/svg"
 width="1265.000000pt" height="306.000000pt" viewBox="0 0 1265.000000 306.000000"
 preserveAspectRatio="xMidYMid meet">

<g transform="translate(0.000000,306.000000) scale(0.100000,-0.100000)"
fill="#000000" stroke="none">
<path d="M1210 2234 c-134 -25 -199 -41 -346 -88 -94 -30 -197 -59 -229 -66
-34 -7 -53 -15 -46 -19 7 -5 -19 -19 -66 -36 -43 -15 -97 -38 -120 -52 -51
-30 -121 -104 -127 -135 -2 -13 -9 -45 -14 -73 -6 -27 -7 -56 -2 -65 4 -8 5
-30 3 -48 -4 -24 1 -40 22 -68 15 -19 34 -38 43 -41 8 -4 23 -14 32 -23 29
-29 190 -60 390 -75 25 -2 95 -23 157 -46 131 -50 151 -71 115 -117 -13 -15
-35 -44 -50 -64 -21 -29 -58 -54 -163 -107 -158 -81 -254 -111 -356 -111 -95
0 -106 -13 -99 -126 3 -44 5 -81 6 -84 1 -3 2 -14 1 -25 0 -11 12 -38 27 -60
l28 -40 79 -3 c112 -4 189 10 306 57 222 89 381 216 452 360 35 69 37 80 37
166 0 90 -1 94 -35 141 -19 27 -39 59 -45 71 -5 12 -18 27 -30 33 -12 6 -20
21 -20 36 0 52 -47 111 -111 138 -20 8 -41 22 -48 30 -8 9 -35 22 -61 30 -69
20 -90 34 -90 56 0 15 7 20 28 20 15 1 45 8 67 16 22 8 51 17 65 20 14 2 58
12 98 21 55 13 80 14 105 6 19 -6 110 -9 219 -8 l187 2 41 28 c48 33 52 62 15
111 -14 18 -25 37 -25 41 0 5 -23 45 -50 88 -44 70 -56 82 -93 93 -42 14 -250
25 -297 16z"/>
<path d="M6826 2210 c-218 -28 -220 -28 -244 -9 -25 19 -68 25 -88 11 -6 -4
-16 -16 -22 -27 -9 -19 -30 -23 -209 -39 -109 -11 -252 -19 -319 -20 l-121 -1
-16 -40 c-22 -53 -21 -73 8 -157 26 -74 26 -98 -1 -59 -17 24 -111 101 -124
101 -15 0 -81 -141 -180 -386 -119 -294 -165 -378 -240 -446 -76 -69 -86 -73
-101 -46 -23 42 -13 173 24 343 19 88 37 172 39 186 3 31 -75 155 -105 165 -9
3 -31 17 -49 32 l-31 26 -46 -51 c-25 -28 -95 -133 -156 -232 -179 -295 -205
-332 -284 -412 -67 -67 -169 -145 -178 -135 -2 1 6 55 17 119 12 73 47 199 95
346 42 127 78 245 81 263 4 30 -2 40 -71 111 -43 44 -83 77 -95 77 -53 0 -127
-107 -191 -274 -49 -131 -67 -201 -119 -455 l-40 -194 47 -101 c56 -121 69
-136 154 -187 72 -43 102 -47 188 -24 117 31 207 89 375 244 l99 91 64 -117
c84 -152 116 -198 165 -233 31 -23 44 -27 58 -20 10 6 36 10 57 10 73 0 206
131 307 303 50 84 114 222 196 417 29 68 68 156 87 194 40 78 40 119 4 202
-15 33 -17 44 -7 44 8 0 21 -11 30 -25 23 -35 66 -39 280 -27 104 7 192 10
194 7 3 -2 -7 -31 -22 -64 -14 -32 -26 -65 -26 -73 0 -8 -11 -25 -25 -38 -14
-13 -25 -30 -25 -37 0 -7 -29 -92 -65 -188 -81 -216 -94 -267 -96 -365 -1 -63
5 -98 32 -184 l34 -107 62 -35 c34 -19 65 -39 68 -44 10 -16 94 -12 131 6 40
19 64 59 64 107 0 37 -12 55 -53 81 -45 28 -51 53 -34 138 8 41 28 103 45 139
16 35 35 82 42 104 7 22 25 65 41 95 40 79 99 205 99 213 0 11 121 301 129
310 9 9 289 46 441 57 163 13 191 19 223 48 21 20 27 35 27 69 0 24 -6 56 -14
71 -19 35 -121 131 -153 143 -43 16 -232 7 -457 -21z"/>
<path d="M3456 1960 c-24 -26 -44 -40 -61 -40 -17 0 -48 -23 -103 -77 -43 -43
-91 -85 -107 -93 -57 -30 -226 -194 -315 -305 -122 -155 -175 -285 -175 -435
0 -87 3 -100 30 -149 39 -71 110 -142 171 -171 70 -33 299 -48 393 -27 37 9
89 19 116 22 28 4 86 22 130 40 44 18 96 36 115 40 45 9 186 101 227 148 35
40 63 119 63 179 0 20 -11 67 -25 104 -14 36 -25 74 -25 83 0 9 -40 97 -90
196 -49 99 -90 187 -90 196 0 8 -5 20 -12 27 -9 9 -9 12 0 12 6 0 17 18 23 39
10 34 9 45 -5 76 -10 20 -20 34 -23 31 -3 -2 -29 23 -59 57 -40 46 -64 64 -96
74 -24 7 -44 13 -44 13 -1 0 -18 -18 -38 -40z m123 -589 c80 -150 92 -195 66
-235 -18 -28 -150 -105 -225 -131 -55 -19 -233 -45 -312 -45 -70 0 -138 25
-138 50 0 36 29 98 87 186 59 90 137 170 249 256 59 45 63 47 94 35 27 -10 33
-10 44 4 12 18 47 29 58 20 4 -3 39 -66 77 -140z"/>
<path d="M2434 1883 c-14 -49 -33 -99 -41 -111 -8 -13 -26 -89 -39 -169 -42
-251 -82 -352 -177 -447 -55 -55 -60 -58 -70 -40 -15 26 -16 372 -2 378 6 2
17 34 25 70 7 36 16 66 19 66 3 0 6 26 6 58 -1 68 -24 113 -88 168 -35 29
-177 108 -183 101 -2 -1 -45 -92 -97 -202 -52 -110 -153 -322 -225 -471 -117
-242 -130 -275 -123 -302 5 -17 7 -33 4 -36 -8 -8 55 -155 85 -200 42 -61 73
-80 117 -72 20 4 34 10 31 13 -4 4 7 12 23 19 23 9 33 23 42 56 7 24 16 47 21
53 4 5 8 22 8 37 0 16 17 55 38 88 20 32 45 73 55 91 l19 34 46 -90 c34 -66
66 -109 123 -167 43 -43 89 -82 104 -88 41 -15 107 -12 137 8 69 45 107 79
113 100 3 12 11 22 18 22 6 0 23 21 37 47 14 26 35 59 47 74 29 33 80 196 88
279 11 111 55 323 70 340 24 26 56 132 50 160 -10 41 -66 120 -84 120 -10 0
-35 15 -57 33 -53 45 -86 67 -101 67 -7 0 -24 -38 -39 -87z"/>
<path d="M7703 1955 c-48 -21 -118 -89 -198 -195 -91 -119 -130 -157 -147
-143 -7 6 -26 13 -41 17 -25 6 -29 3 -43 -30 -8 -20 -30 -105 -49 -190 -19
-85 -37 -159 -41 -165 -8 -13 -25 -123 -25 -159 0 -14 -7 -49 -15 -77 -30
-109 -35 -155 -19 -180 9 -12 18 -43 22 -68 3 -28 11 -45 19 -45 8 0 14 -6 14
-14 0 -15 52 -46 77 -46 7 0 21 4 31 9 9 5 25 12 34 15 24 7 54 58 79 136 12
36 23 67 25 69 1 2 28 -18 60 -43 75 -62 122 -88 236 -135 218 -88 335 -116
421 -99 50 9 62 16 83 47 13 20 20 37 14 39 -6 2 -6 11 1 24 14 27 4 93 -21
134 -18 28 -27 32 -82 38 -34 4 -123 23 -197 41 -108 28 -150 44 -213 82 -43
26 -78 52 -78 59 0 6 57 30 126 53 270 90 365 171 366 317 1 51 -55 220 -90
274 -8 14 -21 34 -26 46 -15 27 -129 132 -188 172 -51 35 -85 39 -135 17z m87
-385 c37 -37 65 -97 51 -112 -12 -13 -211 -88 -251 -94 -35 -6 -40 -4 -40 12
0 11 9 34 21 53 30 49 151 181 166 181 7 0 31 -18 53 -40z"/>
<path d="M12197 1954 c-136 -24 -316 -81 -571 -180 -53 -21 -121 -68 -145
-103 -38 -53 -44 -205 -10 -253 11 -15 26 -28 34 -28 7 0 15 -7 18 -15 10 -25
166 -58 332 -70 42 -4 180 -53 221 -80 33 -21 30 -36 -17 -92 -32 -37 -69 -62
-160 -110 -123 -64 -219 -93 -308 -93 -27 0 -53 -5 -57 -12 -9 -15 -9 -141 0
-156 4 -7 5 -16 2 -20 -2 -4 5 -26 18 -47 l22 -40 109 1 c98 2 119 5 190 34
138 55 214 100 296 177 105 99 139 166 139 272 0 72 -2 79 -40 135 -22 32 -46
64 -53 70 -8 6 -19 30 -26 53 -12 45 -60 93 -92 93 -11 0 -22 7 -25 15 -3 8
-31 24 -62 35 -52 20 -71 34 -72 51 0 4 17 10 38 13 20 4 51 11 67 16 97 29
166 42 192 35 15 -4 99 -7 186 -7 143 0 160 2 192 22 21 13 35 30 35 42 0 21
-30 77 -93 175 -39 61 -40 62 -102 72 -80 14 -161 13 -258 -5z"/>
<path d="M8640 1943 c-44 -29 -90 -76 -90 -92 0 -9 -11 -40 -25 -69 -14 -30
-25 -67 -25 -83 0 -16 -6 -32 -12 -34 -9 -3 -13 -28 -14 -68 -1 -42 -13 -98
-38 -177 -37 -113 -56 -249 -59 -420 -1 -58 47 -229 85 -304 l19 -38 74 4 c82
4 107 19 132 76 11 28 12 48 2 114 -14 97 -7 263 16 373 9 44 40 152 69 240
31 91 49 163 44 166 -12 8 -27 74 -28 120 0 20 -7 42 -14 49 -15 12 -26 39
-46 118 -9 36 -14 42 -38 42 -15 0 -39 -7 -52 -17z"/>
<path d="M10435 1936 c-13 -13 -40 -57 -60 -97 -21 -41 -43 -81 -50 -89 -6 -8
-20 -44 -29 -80 -10 -36 -49 -144 -87 -241 -66 -170 -109 -315 -109 -371 0
-15 -5 -30 -11 -34 -6 -3 -8 -17 -5 -30 5 -17 2 -24 -9 -24 -12 0 -13 -9 -8
-47 3 -27 12 -52 20 -56 8 -5 11 -16 8 -27 -3 -11 3 -40 14 -66 12 -26 21 -53
21 -60 0 -17 80 -64 110 -64 13 0 40 11 61 25 34 24 60 58 193 247 46 67 101
118 126 118 7 0 41 -27 77 -60 79 -74 190 -150 220 -150 12 0 38 -11 58 -24
58 -40 247 -67 322 -47 50 14 129 82 148 128 26 61 20 85 -32 128 -64 55 -85
66 -101 53 -18 -15 -244 -3 -308 16 -66 21 -110 51 -152 105 l-33 44 22 23
c12 13 26 24 30 24 4 0 21 12 37 28 64 59 124 104 218 163 165 102 223 147
244 189 11 22 20 46 20 55 0 14 -95 115 -108 115 -3 0 -20 13 -37 30 l-31 30
-52 -22 c-33 -14 -51 -27 -48 -35 4 -8 -3 -13 -19 -13 -27 0 -172 -92 -275
-174 -36 -29 -97 -76 -136 -104 -40 -29 -77 -59 -84 -67 -20 -24 -31 -18 -24
13 10 41 43 114 61 135 9 10 18 27 20 38 2 11 13 33 24 49 17 22 21 38 16 70
-7 57 -52 123 -77 115 -12 -4 -22 0 -28 11 -9 16 -93 54 -120 54 -7 0 -24 -11
-37 -24z"/>
<path d="M9707 1933 c-14 -13 -102 -62 -191 -106 -33 -16 -79 -42 -103 -58
-24 -17 -64 -40 -90 -52 -115 -53 -299 -236 -354 -352 -32 -66 -36 -121 -19
-235 22 -138 96 -286 158 -312 15 -7 43 -26 63 -44 25 -21 61 -38 120 -54 173
-46 273 -57 439 -44 75 5 90 10 130 39 76 56 93 79 85 114 -4 17 -29 56 -57
86 l-50 55 -97 0 c-144 0 -323 17 -421 41 l-88 20 -17 47 c-17 43 -17 48 -2
75 10 16 17 36 17 44 0 30 159 171 234 209 39 19 82 46 96 58 37 35 92 60 210
96 129 39 163 59 196 116 42 72 32 139 -26 169 -17 9 -30 22 -30 31 0 8 -13
20 -30 25 -16 6 -30 18 -30 26 0 8 -4 11 -10 8 -5 -3 -16 -3 -22 2 -19 12 -97
10 -111 -4z"/>
</g>
</svg>
